<svg xmlns="http://www.w3.org/2000/svg" xmlns:xlink="http://www.w3.org/1999/xlink" fill="none" version="1.1" width="16.000002145440476" height="16.000002145440476" viewBox="0 0 16.000002145440476 16.000002145440476"><defs><clipPath id="master_svg0_51_2792"><rect x="0" y="0.0000021454404759424506" width="16" height="16" rx="0"/></clipPath></defs><g transform="matrix(1,-1.3409002974640316e-7,1.3409002974640316e-7,1,-2.8768217723826055e-13,0)" clip-path="url(#master_svg0_51_2792)"><g><rect x="0" y="0.0000021454404759424506" width="16" height="16" rx="0" fill="#FFFFFF" fill-opacity="0" style="mix-blend-mode:passthrough"/></g><g><path d="M8.333251953125,6.9643331454404755L11.851081953125,10.482172145440476L11.852421953124999,10.480832145440477Q11.948061953125,10.576482145440476,12.073031953125,10.628242145440476Q12.197991953125001,10.680002145440476,12.333251953125,10.680002145440476Q12.400221953125,10.680002145440476,12.465911953125,10.666932145440477Q12.531601953125,10.653872145440477,12.593471953125,10.628242145440476Q12.655351953125,10.602612145440476,12.711041953125,10.565402145440476Q12.766721953125,10.528192145440476,12.814081953125,10.480832145440477Q12.861441953125,10.433472145440476,12.898651953125,10.377792145440477Q12.935861953125,10.322102145440475,12.961491953125,10.260222145440476Q12.987121953125,10.198352145440476,13.000181953125,10.132662145440475Q13.013251953125,10.066972145440477,13.013251953125,10.000002145440476Q13.013251953125,9.864742145440475,12.961491953125,9.739782145440476Q12.909731953125,9.614812145440476,12.814081953125,9.519172145440475L12.815421953125,9.517832145440476L8.815421953125,5.517837145440476Q8.767931953125,5.470348145440476,8.712081953125,5.433036145440476Q8.656241953125,5.395724145440476,8.594201953125001,5.370023145440476Q8.532151953125,5.344322145440476,8.466281953125,5.331220145440476Q8.400411953125001,5.318117145440476,8.333251953125,5.318117145440476Q8.266091953125,5.318117145440476,8.200221953125,5.331220145440476Q8.134351953125,5.344322145440476,8.072301953125,5.370023145440476Q8.010261953125,5.395724145440476,7.954411953125,5.433036145440476Q7.898571953125,5.470348145440476,7.851081953125,5.517837145440476L3.851086953125,9.517832145440476L3.852418953125,9.519172145440475Q3.756775953125,9.614812145440476,3.705013953125,9.739772145440476Q3.653251953125,9.864742145440475,3.653251953125,10.000002145440476Q3.653251953125,10.066972145440477,3.666317953125,10.132662145440475Q3.679383953125,10.198352145440476,3.705013953125,10.260222145440476Q3.730643953125,10.322102145440475,3.767852953125,10.377792145440477Q3.805061953125,10.433472145440476,3.852418953125,10.480832145440477Q3.899776953125,10.528192145440476,3.955463953125,10.565402145440476Q4.011150953125,10.602612145440476,4.073026953125,10.628242145440476Q4.134902953125,10.653872145440477,4.200590953125,10.666932145440477Q4.266277753125,10.680002145440476,4.333251953125,10.680002145440476Q4.468511953125,10.680002145440476,4.593476953125,10.628242145440476Q4.7184409531250004,10.576482145440476,4.814084953125,10.480832145440477L4.815416953125,10.482172145440476L8.333251953125,6.9643331454404755Z" fill-rule="evenodd" fill="#8E58F5" fill-opacity="1" style="mix-blend-mode:passthrough"/></g></g></svg>