<svg xmlns="http://www.w3.org/2000/svg" xmlns:xlink="http://www.w3.org/1999/xlink" fill="none" version="1.1" width="24" height="24" viewBox="0 0 24 24"><defs><clipPath id="master_svg0_51_4245"><rect x="0" y="0" width="24" height="24" rx="0"/></clipPath></defs><g clip-path="url(#master_svg0_51_4245)"><g><rect x="0" y="0" width="24" height="24" rx="0" fill="#FFFFFF" fill-opacity="0.009999999776482582" style="mix-blend-mode:passthrough"/></g><g><path d="M8.79289,12L2.646447,18.1464Q2.611625,18.1813,2.584265,18.2222Q2.556906,18.263199999999998,2.5380599999999998,18.3087Q2.519215,18.3542,2.509607,18.4025Q2.5,18.4508,2.5,18.5Q2.5,18.5492,2.509607,18.5975Q2.519215,18.6458,2.5380599999999998,18.6913Q2.556906,18.736800000000002,2.584265,18.7778Q2.611625,18.8187,2.646447,18.8536L5.14645,21.3536Q5.21677,21.4239,5.30866,21.4619Q5.4005399999999995,21.5,5.5,21.5Q5.5994600000000005,21.5,5.69134,21.4619Q5.78323,21.4239,5.85355,21.3536L12,15.2071L18.1464,21.3536Q18.1813,21.3884,18.2222,21.4157Q18.263199999999998,21.4431,18.3087,21.4619Q18.3542,21.4808,18.4025,21.4904Q18.4508,21.5,18.5,21.5Q18.5492,21.5,18.5975,21.4904Q18.6458,21.4808,18.6913,21.4619Q18.736800000000002,21.4431,18.7778,21.4157Q18.8187,21.3884,18.8536,21.3536L21.3536,18.8536Q21.3884,18.8187,21.4157,18.7778Q21.4431,18.736800000000002,21.4619,18.6913Q21.4808,18.6458,21.4904,18.5975Q21.5,18.5492,21.5,18.5Q21.5,18.4508,21.4904,18.4025Q21.4808,18.3542,21.4619,18.3087Q21.4431,18.263199999999998,21.4157,18.2222Q21.3884,18.1813,21.3536,18.1464L15.2071,12L21.3536,5.85355Q21.4239,5.78323,21.4619,5.69134Q21.5,5.5994600000000005,21.5,5.5Q21.5,5.4005399999999995,21.4619,5.30866Q21.4239,5.21677,21.3536,5.14645L18.8536,2.646447Q18.8187,2.611625,18.7778,2.584265Q18.736800000000002,2.556906,18.6913,2.5380599999999998Q18.6458,2.519215,18.5975,2.509607Q18.5492,2.5,18.5,2.5Q18.4508,2.5,18.4025,2.509607Q18.3542,2.519215,18.3087,2.5380599999999998Q18.263199999999998,2.556906,18.2222,2.584265Q18.1813,2.611625,18.1464,2.646447L12,8.79289L5.85355,2.646447Q5.78323,2.57612,5.69134,2.5380599999999998Q5.5994600000000005,2.5,5.5,2.5Q5.4005399999999995,2.5,5.30866,2.5380599999999998Q5.21677,2.57612,5.14645,2.646447L2.646447,5.14645Q2.57612,5.21677,2.5380599999999998,5.30866Q2.5,5.4005399999999995,2.5,5.5Q2.5,5.5994600000000005,2.5380599999999998,5.69134Q2.57612,5.78323,2.646447,5.85355L8.79289,12ZM3.707107,18.5L9.85355,12.35355Q9.88837,12.31873,9.91573,12.27778Q9.94309,12.23684,9.96194,12.19134Q9.98078,12.14584,9.99039,12.09754Q10,12.04924,10,12Q10,11.95075,9.99039,11.90245Q9.98078,11.85415,9.96194,11.80866Q9.94309,11.76316,9.91573,11.72221Q9.88837,11.68127,9.85355,11.64645L3.707107,5.5L5.5,3.707107L11.64645,9.85355Q11.68127,9.88837,11.72221,9.91573Q11.76316,9.94309,11.80866,9.96194Q11.85415,9.98078,11.90245,9.99039Q11.95075,10,12,10Q12.04924,10,12.09754,9.99039Q12.14584,9.98078,12.19134,9.96194Q12.23684,9.94309,12.27778,9.91573Q12.31873,9.88837,12.35355,9.85355L18.5,3.707107L20.2929,5.5L14.1464,11.64645Q14.1116,11.68127,14.0843,11.72221Q14.0569,11.76316,14.0381,11.80866Q14.0192,11.85415,14.0096,11.90245Q14,11.95075,14,12Q14,12.04924,14.0096,12.09754Q14.0192,12.14584,14.0381,12.19134Q14.0569,12.23684,14.0843,12.27778Q14.1116,12.31873,14.1464,12.35355L20.2929,18.5L18.5,20.2929L12.35355,14.1464Q12.31873,14.1116,12.27778,14.0843Q12.23684,14.0569,12.19134,14.0381Q12.14584,14.0192,12.09754,14.0096Q12.04924,14,12,14Q11.95075,14,11.90245,14.0096Q11.85415,14.0192,11.80866,14.0381Q11.76316,14.0569,11.72221,14.0843Q11.68127,14.1116,11.64645,14.1464L5.5,20.2929L3.707107,18.5Z" fill-rule="evenodd" fill="#8E58F5" fill-opacity="1" style="mix-blend-mode:passthrough"/></g></g></svg>