<svg xmlns="http://www.w3.org/2000/svg" xmlns:xlink="http://www.w3.org/1999/xlink" fill="none" version="1.1" width="14" height="14" viewBox="0 0 14 14"><defs><clipPath id="master_svg0_51_1240"><rect x="0" y="0" width="14" height="14" rx="0"/></clipPath></defs><g clip-path="url(#master_svg0_51_1240)"><g><path d="M3.791748046875,0.8257869765625Q3.758178346875,0.8257869765625,3.725253646875,0.8323359765625Q3.692328946875,0.8388849765624999,3.661314046875,0.8517319765625Q3.630300046875,0.8645779765625,3.602388046875,0.8832289765625Q3.574476046875,0.9018789765624999,3.550738046875,0.9256159765625Q3.527001046875,0.9493539765625,3.508351046875,0.9772659765625Q3.489700046875,1.0051779765625,3.476854046875,1.0361919765625Q3.464007046875,1.0672068765625,3.457458046875,1.1001315765625Q3.450909046875,1.1330562765625,3.450909046875,1.1666259765625L3.450909046875,11.0832959765625Q3.450909046875,11.1168659765625,3.457458046875,11.1497859765625Q3.464007046875,11.1827259765625,3.476854046875,11.2137259765625Q3.489700046875,11.2447259765625,3.508351046875,11.2726259765625Q3.527001046875,11.3005259765625,3.550738046875,11.3243259765625Q3.574476046875,11.3480259765625,3.602388046875,11.3667259765625Q3.630300046875,11.3853259765625,3.661314046875,11.3982259765625Q3.692328946875,11.4110259765625,3.725253646875,11.4176259765625Q3.758178346875,11.4241259765625,3.791748046875,11.4241259765625L11.958418046875,11.4241259765625Q11.991988046875,11.4241259765625,12.024908046875,11.4176259765625Q12.057838046875,11.4110259765625,12.088848046875,11.3982259765625Q12.119858046875,11.3853259765625,12.147778046875,11.3667259765625Q12.175688046875,11.3480259765625,12.199428046875,11.3243259765625Q12.223158046875,11.3005259765625,12.241808046875,11.2726259765625Q12.260458046875,11.2447259765625,12.273308046875,11.2137259765625Q12.286158046875,11.1827259765625,12.292708046875,11.1497859765625Q12.299258046875,11.1168659765625,12.299258046875,11.0832959765625L12.299258046875,4.6666259765625Q12.299258046875,4.6330559765625,12.292708046875,4.6001359765625Q12.286158046875,4.5672059765625,12.273308046875,4.5361959765624995Q12.260458046875,4.5051759765625,12.241808046875,4.477265976562499Q12.223158046875,4.4493559765625,12.199428046875,4.4256159765625Q12.175688046875,4.401875976562501,12.147778046875,4.3832259765625Q12.119858046875,4.3645759765625005,12.088848046875,4.3517359765625Q12.057838046875,4.3388859765625,12.024908046875,4.3323359765625Q11.991988046875,4.3257859765625,11.958418046875,4.3257859765625L9.090918046875,4.3257859765625L9.090918046875,1.1666259765625Q9.090918046875,1.1330562765625,9.084368046875,1.1001315765625Q9.077818046874999,1.0672068765625,9.064978046875,1.0361919765625Q9.052128046875,1.0051779765625,9.033478046875,0.9772659765625Q9.014828046875,0.9493539765625,8.991088046875,0.9256159765625Q8.967348046875,0.9018789765624999,8.939438046875,0.8832289765625Q8.911528046875,0.8645779765625,8.880518046875,0.8517319765625Q8.849498046875,0.8388849765624999,8.816578046875,0.8323359765625Q8.783648046875001,0.8257869765625,8.750078046875,0.8257869765625L3.791748046875,0.8257869765625ZM4.132587046875,1.5074649765625L4.132587046875,10.7424559765625L11.617578046875,10.7424559765625L11.617578046875,5.0074659765625L8.750078046875,5.0074659765625Q8.716508046875,5.0074659765625,8.683588046875,5.0009159765625Q8.650658046875,4.9943659765625,8.619648046875,4.9815159765625Q8.588638046875001,4.9686759765624995,8.560718046875,4.9500259765625Q8.532808046875001,4.931375976562499,8.509068046875,4.9076359765625Q8.485338046875,4.8838959765625,8.466688046875,4.855985976562501Q8.448028046874999,4.8280759765625,8.435188046875,4.7970559765625005Q8.422338046875,4.7660459765625,8.415788046875,4.7331159765625Q8.409238046875,4.7001959765625,8.409238046875,4.6666259765625L8.409238046875,1.5074649765625L4.132587046875,1.5074649765625Z" fill-rule="evenodd" fill="#FFFFFF" fill-opacity="1" style="mix-blend-mode:passthrough"/></g><g><path d="M8.499368,1.3963719765625Q8.41,1.2988799765625,8.41,1.1666259765625Q8.41,1.1331388765625,8.416533,1.1002952765625Q8.423066,1.0674516765625,8.435881,1.0365139765625Q8.448696,1.0055759765625,8.4673,0.9777319765625Q8.485905,0.9498889765625,8.509584,0.9262099765625Q8.533263,0.9025309765625,8.561106,0.8839259765625Q8.58895,0.8653219765625,8.619888,0.8525069765625Q8.6508257,0.8396919765624999,8.6836693,0.8331589765625Q8.7165129,0.8266259765624999,8.75,0.8266259765624999Q8.8214781,0.8266259765624999,8.886906,0.8554079765625Q8.952333,0.8841889765625,9.000632,0.9368799765625L9.001251,0.9363119765625L12.209579999999999,4.436315976562501L12.20897,4.4368759765625Q12.29833,4.5343759765625,12.29833,4.6666259765625Q12.29833,4.7001159765625005,12.2918,4.7329559765625Q12.28527,4.7657959765625,12.27245,4.7967359765625Q12.259640000000001,4.8276759765624995,12.24103,4.8555159765625Q12.22243,4.8833659765625,12.19875,4.9070459765625Q12.17507,4.9307159765624995,12.14723,4.9493259765625Q12.11938,4.9679259765624995,12.08845,4.9807459765625Q12.05751,4.9935559765625,12.02466,5.0000959765625Q11.99182,5.0066259765625,11.95833,5.0066259765625Q11.88686,5.0066259765625,11.82143,4.9778459765625005Q11.756,4.949065976562499,11.707699999999999,4.8963759765625L11.70708,4.896935976562499L8.498749,1.3969399765625L8.499368,1.3963719765625Z" fill-rule="evenodd" fill="#FFFFFF" fill-opacity="1" style="mix-blend-mode:passthrough"/></g><g><path d="M1.701748046875,5.8333740234375Q1.701748046875,5.7998869234375,1.708281046875,5.7670433234375Q1.714814046875,5.7341997234375,1.727629046875,5.7032620234374996Q1.740444046875,5.6723240234375,1.759048046875,5.6444800234375Q1.777653046875,5.6166370234375,1.801332046875,5.5929580234375Q1.825011046875,5.5692790234375,1.852854046875,5.5506740234375Q1.880698046875,5.5320700234375,1.911636046875,5.5192550234375Q1.942573746875,5.5064400234375,1.975417346875,5.4999070234375Q2.008260946875,5.4933740234375,2.041748046875,5.4933740234375Q2.075235146875,5.4933740234375,2.108078746875,5.4999070234375Q2.140922346875,5.5064400234375,2.171860046875,5.5192550234375Q2.202798046875,5.5320700234375,2.230642046875,5.5506740234375Q2.258485046875,5.5692790234375,2.282164046875,5.5929580234375Q2.305843046875,5.6166370234375,2.324448046875,5.6444800234375Q2.343052046875,5.6723240234375,2.355867046875,5.7032620234374996Q2.368682046875,5.7341997234375,2.375215046875,5.7670433234375Q2.381748046875,5.7998869234375,2.381748046875,5.8333740234375L2.382587046875,5.8333740234375L2.382587046875,12.4925340234375L8.166748046875,12.4925340234375L8.166748046875,12.4933740234375Q8.200238046875,12.4933740234375,8.233078046875,12.4999040234375Q8.265918046875,12.5064440234375,8.296858046875,12.519254023437501Q8.327798046875,12.532074023437499,8.355638046875,12.5506740234375Q8.383488046875,12.5692740234375,8.407168046875,12.5929540234375Q8.430838046875,12.6166340234375,8.449448046875,12.6444840234375Q8.468048046875001,12.6723240234375,8.480868046874999,12.7032640234375Q8.493678046875,12.7341940234375,8.500218046875,12.7670440234375Q8.506748046875,12.7998840234375,8.506748046875,12.8333740234375Q8.506748046875,12.8668640234375,8.500218046875,12.8997040234375Q8.493678046875,12.9325440234375,8.480868046874999,12.9634840234375Q8.468048046875001,12.9944240234375,8.449448046875,13.0222640234375Q8.430838046875,13.0501140234375,8.407168046875,13.0737940234375Q8.383488046875,13.0974640234375,8.355638046875,13.1160740234375Q8.327798046875,13.134674023437501,8.296858046875,13.147494023437499Q8.265918046875,13.1603040234375,8.233078046875,13.1668440234375Q8.200238046875,13.1733740234375,8.166748046875,13.1733740234375L8.166748046875,13.1742140234375L2.041748046875,13.1742140234375Q2.008178346875,13.1742140234375,1.975253646875,13.1676640234375Q1.942328946875,13.1611140234375,1.911314046875,13.1482640234375Q1.880300046875,13.135424023437501,1.852388046875,13.1167740234375Q1.824476046875,13.0981240234375,1.800738046875,13.0743840234375Q1.777001046875,13.0506440234375,1.758351046875,13.0227340234375Q1.739700046875,12.9948240234375,1.726854046875,12.9638040234375Q1.714007046875,12.9327940234375,1.707458046875,12.8998640234375Q1.700909046875,12.866944023437501,1.700909046875,12.8333740234375L1.700909046875,5.8333740234375L1.701748046875,5.8333740234375Z" fill-rule="evenodd" fill="#FFFFFF" fill-opacity="1" style="mix-blend-mode:passthrough"/></g><g><path d="M5.541748046875,6.1742130234375L6.708418046875,6.1742130234375L6.708418046875,6.1733740234375Q6.741898046875,6.1733740234375,6.7747480468750005,6.1668410234375Q6.807588046875,6.1603080234375,6.838528046875,6.1474930234375Q6.869468046875,6.1346780234375,6.8973080468750005,6.1160740234375Q6.925148046875,6.0974690234375,6.9488280468750006,6.0737900234375Q6.972508046875,6.0501110234375,6.991118046875,6.0222680234375Q7.009718046875,5.9944240234375,7.022538046875,5.9634860234375004Q7.035348046875,5.9325483234375,7.041878046875,5.8997047234375Q7.048418046875,5.8668611234375,7.048418046875,5.8333740234375Q7.048418046875,5.7998869234375,7.041878046875,5.7670433234375Q7.035348046875,5.7341997234375,7.022538046875,5.7032620234374996Q7.009718046875,5.6723240234375,6.991118046875,5.6444800234375Q6.972508046875,5.6166370234375,6.9488280468750006,5.5929580234375Q6.925148046875,5.5692790234375,6.8973080468750005,5.5506740234375Q6.869468046875,5.5320700234375,6.838528046875,5.5192550234375Q6.807588046875,5.5064400234375,6.7747480468750005,5.4999070234375Q6.741898046875,5.4933740234375,6.708418046875,5.4933740234375L6.708418046875,5.4925350234375L5.541748046875,5.4925350234375L5.541748046875,5.4933740234375Q5.508260946875,5.4933740234375,5.475417346875,5.4999070234375Q5.442573746875,5.5064400234375,5.4116360468749996,5.5192550234375Q5.380698046875,5.5320700234375,5.352854046875,5.5506740234375Q5.325011046875,5.5692790234375,5.301332046875,5.5929580234375Q5.277653046875,5.6166370234375,5.259048046875,5.6444800234375Q5.240444046875,5.6723240234375,5.227629046875,5.7032620234374996Q5.214814046875,5.7341997234375,5.208281046875,5.7670433234375Q5.201748046875,5.7998869234375,5.201748046875,5.8333740234375Q5.201748046875,5.8668611234375,5.208281046875,5.8997047234375Q5.214814046875,5.9325483234375,5.227629046875,5.9634860234375004Q5.240444046875,5.9944240234375,5.259048046875,6.0222680234375Q5.277653046875,6.0501110234375,5.301332046875,6.0737900234375Q5.325011046875,6.0974690234375,5.352854046875,6.1160740234375Q5.380698046875,6.1346780234375,5.4116360468749996,6.1474930234375Q5.442573746875,6.1603080234375,5.475417346875,6.1668410234375Q5.508260946875,6.1733740234375,5.541748046875,6.1733740234375L5.541748046875,6.1742130234375Z" fill-rule="evenodd" fill="#FFFFFF" fill-opacity="1" style="mix-blend-mode:passthrough"/></g><g><path d="M5.541748046875,8.5074649765625L9.041748046875,8.5074649765625L9.041748046875,8.5066259765625Q9.075238046875,8.5066259765625,9.108078046875,8.5000929765625Q9.140918046875,8.4935599765625,9.171858046875,8.4807449765625Q9.202798046875,8.4679299765625,9.230638046875,8.4493259765625Q9.258488046875,8.4307209765625,9.282168046875,8.4070419765625Q9.305838046875,8.3833629765625,9.324448046875,8.3555199765625Q9.343048046875,8.3276759765625,9.355868046874999,8.2967379765625Q9.368678046875,8.2658002765625,9.375218046875,8.2329566765625Q9.381748046875,8.2001130765625,9.381748046875,8.1666259765625Q9.381748046875,8.1331388765625,9.375218046875,8.1002952765625Q9.368678046875,8.0674516765625,9.355868046874999,8.0365139765625Q9.343048046875,8.0055759765625,9.324448046875,7.9777319765625Q9.305838046875,7.9498889765625,9.282168046875,7.9262099765625Q9.258488046875,7.9025309765625,9.230638046875,7.8839259765625Q9.202798046875,7.8653219765625,9.171858046875,7.8525069765625Q9.140918046875,7.8396919765625,9.108078046875,7.8331589765625Q9.075238046875,7.8266259765625,9.041748046875,7.8266259765625L9.041748046875,7.8257869765625L5.541748046875,7.8257869765625L5.541748046875,7.8266259765625Q5.508260946875,7.8266259765625,5.475417346875,7.8331589765625Q5.442573746875,7.8396919765625,5.4116360468749996,7.8525069765625Q5.380698046875,7.8653219765625,5.352854046875,7.8839259765625Q5.325011046875,7.9025309765625,5.301332046875,7.9262099765625Q5.277653046875,7.9498889765625,5.259048046875,7.9777319765625Q5.240444046875,8.0055759765625,5.227629046875,8.0365139765625Q5.214814046875,8.0674516765625,5.208281046875,8.1002952765625Q5.201748046875,8.1331388765625,5.201748046875,8.1666259765625Q5.201748046875,8.2001130765625,5.208281046875,8.2329566765625Q5.214814046875,8.2658002765625,5.227629046875,8.2967379765625Q5.240444046875,8.3276759765625,5.259048046875,8.3555199765625Q5.277653046875,8.3833629765625,5.301332046875,8.4070419765625Q5.325011046875,8.4307209765625,5.352854046875,8.4493259765625Q5.380698046875,8.4679299765625,5.4116360468749996,8.4807449765625Q5.442573746875,8.4935599765625,5.475417346875,8.5000929765625Q5.508260946875,8.5066259765625,5.541748046875,8.5066259765625L5.541748046875,8.5074649765625Z" fill-rule="evenodd" fill="#FFFFFF" fill-opacity="1" style="mix-blend-mode:passthrough"/></g></g></svg>