<svg xmlns="http://www.w3.org/2000/svg" xmlns:xlink="http://www.w3.org/1999/xlink" fill="none" version="1.1" width="24" height="24" viewBox="0 0 24 24"><defs><clipPath id="master_svg0_51_3421"><rect x="0" y="24" width="24" height="24" rx="0"/></clipPath></defs><g transform="matrix(0,-1,1,0,-24,24)" clip-path="url(#master_svg0_51_3421)"><g><rect x="0" y="24" width="24" height="24" rx="0" fill="#FFFFFF" fill-opacity="0" style="mix-blend-mode:passthrough"/></g><g><path d="M12.4998779296875,33.964331L18.0176779296875,39.482169999999996L18.019077929687498,39.48083Q18.114677929687502,39.576480000000004,18.239677929687502,39.62824Q18.3645779296875,39.68,18.4998779296875,39.68Q18.5668779296875,39.68,18.6325779296875,39.66693Q18.6981779296875,39.65387,18.760077929687498,39.62824Q18.8219779296875,39.60261,18.8776779296875,39.5654Q18.933377929687502,39.52819,18.980677929687502,39.48083Q19.0280779296875,39.43347,19.0652779296875,39.37779Q19.102477929687502,39.3221,19.1280779296875,39.260220000000004Q19.1537779296875,39.19835,19.1667779296875,39.13266Q19.1798779296875,39.06697,19.1798779296875,39Q19.1798779296875,38.86474,19.1280779296875,38.739779999999996Q19.0763779296875,38.61481,18.980677929687502,38.51917L18.9820779296875,38.517830000000004L12.9820479296875,32.517835Q12.9345579296875,32.470346,12.8787079296875,32.433034Q12.8228679296875,32.395722,12.760827929687501,32.370021Q12.6987779296875,32.34432,12.6329079296875,32.331218Q12.567037929687501,32.318115,12.4998779296875,32.318115Q12.432717929687499,32.318115,12.3668479296875,32.331218Q12.3009779296875,32.34432,12.238927929687499,32.370021Q12.1768879296875,32.395722,12.1210379296875,32.433034Q12.0651979296875,32.470346,12.0177079296875,32.517835L6.0177129296875,38.517830000000004L6.0190449296875,38.51917Q5.9234019296875005,38.61481,5.8716399296875,38.739779999999996Q5.8198779296875,38.86474,5.8198779296875,39Q5.8198779296875,39.06697,5.8329439296875,39.13266Q5.8460099296875,39.19835,5.8716399296875,39.260220000000004Q5.8972699296875,39.3221,5.9344789296875,39.37779Q5.9716879296875,39.43347,6.0190449296875,39.48083Q6.0664029296875,39.52819,6.1220899296875,39.5654Q6.1777769296875,39.60261,6.2396529296875,39.62824Q6.3015289296875,39.65387,6.3672169296875,39.66693Q6.4329037296875,39.68,6.4998779296875,39.68Q6.6351379296875,39.68,6.7601029296875,39.62824Q6.8850669296875004,39.576480000000004,6.9807109296875,39.48083L6.9820429296875,39.482169999999996L12.4998779296875,33.964331Z" fill-rule="evenodd" fill="#FFFFFF" fill-opacity="1" style="mix-blend-mode:passthrough"/></g></g></svg>