<svg xmlns="http://www.w3.org/2000/svg" xmlns:xlink="http://www.w3.org/1999/xlink" fill="none" version="1.1" width="24" height="24" viewBox="0 0 24 24"><defs><clipPath id="master_svg0_51_3710"><rect x="0" y="0" width="24" height="24" rx="0"/></clipPath></defs><g clip-path="url(#master_svg0_51_3710)"><g><rect x="0" y="0" width="24" height="24" rx="0" fill="#FFFFFF" fill-opacity="0.009999999776482582" style="mix-blend-mode:passthrough"/></g><g><path d="M4.606209,11.063Q3.1772270000000002,13.2424,3.4070460000000002,15.5299Q3.761527,19.0583,6.05031,20.9116Q8.16625,22.625,11.5733,22.625Q15.6712,22.625,17.627499999999998,21.4915Q20.625,19.7548,20.625,15.0901Q20.625,10.21674,18.2594,7.12056Q18.183999999999997,7.02177,18.0764,6.95939Q17.968899999999998,6.897,17.8457,6.88052Q17.7224,6.86403,17.6023,6.89596Q17.482100000000003,6.92789,17.3834,7.00336Q17.2878,7.07636,17.2262,7.17959Q15.5339,10.01388,14.8286,10.33419Q14.7824,10.06076,14.7677,9.26196Q14.7202,6.67755,14.0573,5.36411Q12.79195,2.856938,9.62092,1.430044Q9.564779999999999,1.404784,9.5048,1.390961Q9.44481,1.377138,9.38328,1.375284Q9.32175,1.373429,9.261050000000001,1.383613Q9.20034,1.3937979999999999,9.14278,1.4156309999999999Q9.08523,1.4374630000000002,9.03304,1.470105Q8.98085,1.502747,8.936029999999999,1.544943Q8.891210000000001,1.587139,8.85548,1.637268Q8.819759999999999,1.687397,8.7945,1.743533Q8.72265,1.9032002,8.744209999999999,2.0769553Q9.13748,5.24662,8.60434,6.59839Q8.4755,6.92503,7.271240000000001,8.071850000000001Q5.39743,9.856290000000001,4.606209,11.063ZM11.5733,21.375Q5.25057,21.375,4.650785,15.405Q4.465201,13.5577,5.65154,11.74841Q6.36378,10.66215,8.13327,8.97706Q9.53717,7.64012,9.76716,7.05701Q10.30447,5.69467,10.10214,3.07674Q12.07882,4.21824,12.94138,5.92729Q13.47563,6.98592,13.51792,9.28495Q13.56096,11.625,14.665,11.625Q15.8713,11.625,17.7899,8.64369Q19.375,11.23163,19.375,15.0901Q19.375,19.0344,17.000799999999998,20.41Q15.3352,21.375,11.5733,21.375Z" fill-rule="evenodd" fill="#8E58F5" fill-opacity="1" style="mix-blend-mode:passthrough"/></g><g><path d="M13.811416982421875,16.722490390625Q13.563366982421876,15.730070390625,12.428206982421875,14.503950390625Q11.718426982421875,13.737290390625,11.473156982421875,11.920530590625Q11.456526982421876,11.797328390625,11.394016982421874,11.689869390625Q11.331496982421875,11.582409390625,11.232616982421876,11.507053390625Q11.133736982421874,11.431697390625,11.013546982421875,11.399917390625Q10.893356982421874,11.368136390625,10.770156982421875,11.384769390625Q10.577366982421875,11.410798390625,10.433396982421876,11.541651390625Q7.3205769824218745,14.370990390625,7.807402982421875,16.922580390625Q8.010557982421876,17.987480390625,8.777422982421875,18.703560390625Q9.384616982421875,19.270540390625,10.183156982421876,19.489500390625Q11.888936982421875,19.957320390625,13.165856982421875,18.820080390625Q14.122716982421874,17.967920390625,13.811416982421875,16.722490390625ZM10.463746982421874,13.268880390625Q10.815516982421876,14.601980390625,11.510946982421874,15.353150390625Q12.428386982421875,16.344100390625,12.598726982421875,17.025610390625Q12.726646982421876,17.537380390625,12.334506982421875,17.886620390624998Q11.564676982421876,18.572230390625002,10.513706982421875,18.284000390625Q10.012436982421875,18.146550390625002,9.630536982421875,17.789940390625Q9.161939982421876,17.352380390625,9.035253982421874,16.688320390625Q8.741308982421875,15.147660390625,10.463746982421874,13.268880390625Z" fill-rule="evenodd" fill="#8E58F5" fill-opacity="1" style="mix-blend-mode:passthrough"/></g></g></svg>