<svg xmlns="http://www.w3.org/2000/svg" xmlns:xlink="http://www.w3.org/1999/xlink" fill="none" version="1.1" width="24" height="24" viewBox="0 0 24 24"><defs><clipPath id="master_svg0_69_1804"><rect x="24" y="0" width="24" height="24" rx="0"/></clipPath></defs><g transform="matrix(-1,0,0,1,48,0)" clip-path="url(#master_svg0_69_1804)"><g><path d="M39.25,13.25L39.25,19.5Q39.25,20.432000000000002,39.9090015,21.091Q40.568003,21.75,41.5,21.75Q42.432,21.75,43.091,21.091Q43.75,20.432000000000002,43.75,19.5L43.75,13.25L39.25,13.25ZM40.969662,20.03034Q40.75,19.810679999999998,40.75,19.5L40.75,14.75L42.25,14.75L42.25,19.5Q42.25,19.810679999999998,42.03034,20.03034Q41.81068,20.25,41.5,20.25Q41.18932,20.25,40.969662,20.03034Z" fill-rule="evenodd" fill="#FF9500" fill-opacity="1" style="mix-blend-mode:passthrough"/></g><g><path d="M38.5,5.25L43.5,5.25Q44.432,5.25,45.091,5.909001Q45.75,6.568002,45.75,7.5L45.75,12.5Q45.75,13.432,45.091,14.091Q44.432,14.75,43.5,14.75L38,14.75Q37.9261315,14.75,37.853682,14.73559Q37.781233,14.72118,37.712987,14.69291Q37.644742,14.66464,37.583322,14.6236Q37.521903,14.58256,37.46967,14.53033Q37.417437,14.4781,37.376398,14.41668Q37.335359,14.35526,37.30709,14.28701Q37.278822,14.21877,37.264411,14.14632Q37.25,14.07387,37.25,14Q37.25,13.92613,37.264411,13.85368Q37.278822,13.78123,37.30709,13.71299Q37.335359,13.644739999999999,37.376398,13.58332Q37.417437,13.521899999999999,37.46967,13.46967Q37.521903,13.41744,37.583322,13.3764Q37.644742,13.33536,37.712987,13.307089999999999Q37.781233,13.27882,37.853682,13.26441Q37.9261315,13.25,38,13.25L38.000845728,13.25L43.5,13.25Q43.81068,13.25,44.03034,13.030339999999999Q44.25,12.81068,44.25,12.5L44.25,7.5Q44.25,7.18932,44.03034,6.969662Q43.81068,6.75,43.5,6.75L38.5,6.75Q38.426131,6.75,38.353682,6.735589Q38.281233,6.721178,38.212987,6.69291Q38.144742,6.664641,38.0833223,6.623602Q38.0219029,6.582563,37.9696699,6.53033Q37.917437,6.478097,37.876398,6.416678Q37.835359,6.355258,37.80709,6.287013Q37.778822,6.218767,37.764411,6.146318Q37.75,6.0738685,37.75,6Q37.75,5.9261315,37.764411,5.853682Q37.778822,5.781233,37.80709,5.712987Q37.835359,5.644742,37.876398,5.583322Q37.917437,5.521903,37.9696699,5.46967Q38.0219029,5.417437,38.0833223,5.376398Q38.144742,5.335359,38.212987,5.30709Q38.281233,5.278822,38.353682,5.264411Q38.426131,5.25,38.5,5.25Z" fill-rule="evenodd" fill="#FF9500" fill-opacity="1" style="mix-blend-mode:passthrough"/></g><g><path d="M30,13.75L31,13.75L31,12.25L30,12.25Q29.06802,12.25,28.40901,11.59099Q27.75,10.93198,27.75,10Q27.75,9.06802,28.40901,8.40901Q29.06802,7.75,30,7.75L31,7.75L31,6.25L30,6.25Q28.4467,6.25,27.348349,7.348351Q26.25,8.4467,26.25,10Q26.25,11.5533,27.348349,12.65165Q28.4467,13.75,30,13.75Z" fill-rule="evenodd" fill="#FF9500" fill-opacity="1" style="mix-blend-mode:passthrough"/></g><g><path d="M31.0991998,17.25L32.75,17.25Q35.85659,17.25,38.05329,15.0533Q40.25,12.85658,40.25,9.75Q40.25,6.643409999999999,38.05329,4.4467099999999995Q35.85659,2.25,32.75,2.25L31.0991997,2.25Q30.747374,2.25,30.498637,2.498815Q30.25,2.74753,30.25,3.09922L30.25,16.4008Q30.25,16.7526,30.498724,17.0013Q30.747443,17.25,31.0991998,17.25ZM36.99263,13.9926Q35.23527,15.75,32.75,15.75L31.75,15.75L31.75,3.75L32.75,3.75Q35.23527,3.75,36.99263,5.50737Q38.75,7.26474,38.75,9.75Q38.75,12.23526,36.99263,13.9926Z" fill-rule="evenodd" fill="#FF9500" fill-opacity="1" style="mix-blend-mode:passthrough"/></g></g></svg>