<svg xmlns="http://www.w3.org/2000/svg" xmlns:xlink="http://www.w3.org/1999/xlink" fill="none" version="1.1" width="24" height="24" viewBox="0 0 24 24"><defs><clipPath id="master_svg0_51_4216"><rect x="0" y="0" width="24" height="24" rx="0"/></clipPath></defs><g clip-path="url(#master_svg0_51_4216)"><g><g><rect x="0" y="0" width="24" height="24" rx="0" fill="#FFFFFF" fill-opacity="0.009999999776482582" style="mix-blend-mode:passthrough"/></g><g><g><path d="M18.5,4.5L15.2071,4.5L12.7071,2Q12.4142,1.707107,12,1.707107Q11.58579,1.707107,11.29289,2L8.79289,4.5L5.5,4.5Q4.5,4.5,4.5,5.5L4.5,8.79289L2,11.29289Q1.707107,11.58578,1.707107,12Q1.707107,12.4142,2,12.7071L4.5,15.2071L4.5,18.5Q4.5,19.5,5.5,19.5L8.79289,19.5L11.29289,22Q11.58578,22.2929,12,22.2929Q12.4142,22.2929,12.7071,22L15.2071,19.5L18.5,19.5Q19.5,19.5,19.5,18.5L19.5,15.2071L22,12.7071Q22.2929,12.4142,22.2929,12Q22.2929,11.58578,22,11.29289L19.5,8.79289L19.5,5.5Q19.5,4.5,18.5,4.5ZM12,2.707107L14.5,5.20711Q14.7929,5.5,15.2071,5.5L18.5,5.5L18.5,8.79289Q18.5,9.20711,18.7929,9.5L21.2929,12L18.7929,14.5Q18.5,14.7929,18.5,15.2071L18.5,18.5L15.2071,18.5Q14.7929,18.5,14.5,18.7929L12,21.2929L9.5,18.7929Q9.20711,18.5,8.79289,18.5L5.5,18.5L5.5,15.2071Q5.5,14.7929,5.20711,14.5L2.707107,12L5.20711,9.5Q5.5,9.20711,5.5,8.79289L5.5,5.5L8.79289,5.5Q9.20711,5.5,9.5,5.20711L12,2.707107Z" fill-rule="evenodd" fill="#8E58F5" fill-opacity="1" style="mix-blend-mode:passthrough"/></g><g><ellipse cx="12" cy="12" rx="3" ry="3" fill-opacity="0" stroke-opacity="1" stroke="#8E58F5" fill="none" stroke-width="1" stroke-linejoin="round" style="mix-blend-mode:passthrough"/></g></g></g></g></svg>